<svg width="30" height="31" viewBox="0 0 30 31" fill="none" xmlns="http://www.w3.org/2000/svg">
<path d="M29.7354 28.7302L17.8746 12.3093L26.4089 2.11684C26.866 1.57216 26.7938 0.757731 26.2474 0.300687C25.701 -0.154639 24.8883 -0.0841922 24.4313 0.462199L16.3161 10.1529L9.94331 1.32474C9.34193 0.493126 8.37801 0 7.35224 0H1.38833C0.257747 0 -0.396891 1.28179 0.26462 2.19759L10.7835 16.7629L0.695891 28.811C0.238847 29.3556 0.311012 30.1701 0.857403 30.6271C1.09795 30.8299 1.39177 30.9278 1.68386 30.9278C2.05156 30.9278 2.41754 30.7714 2.67355 30.4656L12.3419 18.9175L20.0584 29.6013C20.6598 30.433 21.622 30.9261 22.6478 30.9261H28.6117C29.7423 30.9278 30.3969 29.646 29.7354 28.7302Z" fill="white"/>
</svg>
