<svg width="30" height="22" viewBox="0 0 30 22" fill="none" xmlns="http://www.w3.org/2000/svg">
<path d="M26.2983 2.67403C22.6221 -0.0765204 19.1004 0.000532514 19.1004 0.000532514L18.7404 0.411695C23.1107 1.72287 25.1415 3.65078 25.1415 3.65078C18.8891 0.208324 10.9249 0.232956 4.42142 3.65078C4.42142 3.65078 6.52933 1.61992 11.1566 0.308746L10.8996 0.000216894C10.8996 0.000216894 7.40345 -0.0768366 3.70172 2.67372C3.70172 2.67372 0 9.33189 0 17.5324C0 17.5324 2.15939 21.2341 7.84082 21.4141C7.84082 21.4141 8.79199 20.283 9.56315 19.3062C6.29817 18.3295 5.06437 16.2986 5.06437 16.2986C7.11544 17.582 9.18957 18.3854 11.774 18.8951C15.9791 19.7606 21.2096 18.8707 25.1159 16.2986C25.1159 16.2986 23.8307 18.3809 20.4631 19.3321C21.2342 20.2833 22.1598 21.3885 22.1598 21.3885C27.8406 21.2089 30 17.5071 30 17.5327C30 9.33221 26.2983 2.67403 26.2983 2.67403ZM10.2055 15.1422C8.76578 15.1422 7.58345 13.8825 7.58345 12.3142C7.68861 8.55884 12.7489 8.57052 12.8278 12.3142C12.8275 13.8825 11.6708 15.1422 10.2055 15.1422ZM19.5886 15.1422C18.1489 15.1422 16.9666 13.8825 16.9666 12.3142C17.0822 8.5661 22.0793 8.56452 22.211 12.3142C22.2107 13.8825 21.0539 15.1422 19.5886 15.1422Z" fill="white"/>
</svg>
