<svg width="30" height="30" viewBox="0 0 30 30" fill="none" xmlns="http://www.w3.org/2000/svg">
<path d="M10.0012 15.0006C10.0012 12.2392 12.2392 10 15.0006 10C17.762 10 20.0012 12.2392 20.0012 15.0006C20.0012 17.762 17.762 20.0012 15.0006 20.0012C12.2392 20.0012 10.0012 17.762 10.0012 15.0006ZM7.29795 15.0006C7.29795 19.2548 10.7464 22.7033 15.0006 22.7033C19.2548 22.7033 22.7033 19.2548 22.7033 15.0006C22.7033 10.7464 19.2548 7.29795 15.0006 7.29795C10.7464 7.29795 7.29795 10.7464 7.29795 15.0006ZM21.208 6.99261C21.208 7.98619 22.0138 8.79317 23.0086 8.79317C24.0022 8.79317 24.8092 7.98619 24.8092 6.99261C24.8092 5.99903 24.0034 5.19326 23.0086 5.19326C22.0138 5.19326 21.208 5.99903 21.208 6.99261ZM8.93978 27.2107C7.47728 27.1441 6.68242 26.9005 6.15413 26.6945C5.45377 26.4219 4.95456 26.0972 4.42869 25.5725C3.90404 25.0479 3.57809 24.5486 3.30668 23.8483C3.10069 23.32 2.85714 22.5251 2.7905 21.0626C2.7178 19.4814 2.70326 19.0064 2.70326 15.0006C2.70326 10.9948 2.71901 10.521 2.7905 8.93857C2.85714 7.47607 3.1019 6.68242 3.30668 6.15291C3.5793 5.45256 3.90404 4.95335 4.42869 4.42748C4.95335 3.90282 5.45256 3.57688 6.15413 3.30546C6.68242 3.09948 7.47728 2.85593 8.93978 2.78929C10.521 2.71659 10.996 2.70205 15.0006 2.70205C19.0064 2.70205 19.4802 2.7178 21.0626 2.78929C22.5251 2.85593 23.3188 3.10069 23.8483 3.30546C24.5486 3.57688 25.0479 3.90282 25.5737 4.42748C26.0984 4.95214 26.4231 5.45256 26.6957 6.15291C26.9017 6.68121 27.1453 7.47607 27.2119 8.93857C27.2846 10.521 27.2992 10.9948 27.2992 15.0006C27.2992 19.0052 27.2846 19.4802 27.2119 21.0626C27.1453 22.5251 26.9005 23.32 26.6957 23.8483C26.4231 24.5486 26.0984 25.0479 25.5737 25.5725C25.0491 26.0972 24.5486 26.4219 23.8483 26.6945C23.32 26.9005 22.5251 27.1441 21.0626 27.2107C19.4814 27.2834 19.0064 27.298 15.0006 27.298C10.996 27.298 10.521 27.2834 8.93978 27.2107ZM8.81619 0.0908761C7.21919 0.163577 6.12868 0.416818 5.17509 0.787592C4.18878 1.17048 3.35272 1.68424 2.51787 2.51787C1.68424 3.35151 1.17048 4.18757 0.787592 5.17509C0.416818 6.12868 0.163577 7.21919 0.0908761 8.81619C0.0169635 10.4156 0 10.9269 0 15.0006C0 19.0743 0.0169635 19.5856 0.0908761 21.185C0.163577 22.782 0.416818 23.8725 0.787592 24.8261C1.17048 25.8124 1.68302 26.6497 2.51787 27.4833C3.35151 28.317 4.18757 28.8295 5.17509 29.2136C6.12989 29.5844 7.21919 29.8376 8.81619 29.9103C10.4168 29.983 10.9269 30.0012 15.0006 30.0012C19.0755 30.0012 19.5856 29.9842 21.185 29.9103C22.782 29.8376 23.8725 29.5844 24.8261 29.2136C25.8124 28.8295 26.6485 28.317 27.4833 27.4833C28.317 26.6497 28.8295 25.8124 29.2136 24.8261C29.5844 23.8725 29.8388 22.782 29.9103 21.185C29.983 19.5844 30 19.0743 30 15.0006C30 10.9269 29.983 10.4156 29.9103 8.81619C29.8376 7.21919 29.5844 6.12868 29.2136 5.17509C28.8295 4.18878 28.317 3.35272 27.4833 2.51787C26.6497 1.68424 25.8124 1.17048 24.8273 0.787592C23.8725 0.416818 22.782 0.162365 21.1862 0.0908761C19.5868 0.0181752 19.0755 0 15.0018 0C10.9269 0 10.4168 0.0169635 8.81619 0.0908761Z" fill="white"/>
</svg>
